<svg width="800px" height="800px" viewBox="0 0 25 32" xmlns="http://www.w3.org/2000/svg"><path fill="currentColor" d="M 11.8 0.001 C 12.904 1.898 11.449 4.409 10.287 5.812 C 9.16 7.172 7.789 8.31 6.544 9.545 C 5.195 10.85 3.976 12.251 2.876 13.755 L 2.824 13.829 C 1.068 16.042 0 18.925 0 22.074 C 0 23.026 0.097 23.954 0.283 24.847 L 0.268 24.762 C 1.395 28.494 4.325 31.282 7.941 31.99 L 8.002 32 C 6.073 31.118 4.705 29.204 4.505 26.931 L 4.503 26.906 C 4.633 24.52 5.843 22.462 7.617 21.262 L 7.644 21.245 C 7.526 21.536 7.458 21.874 7.458 22.23 C 7.458 22.742 7.599 23.22 7.843 23.62 L 7.837 23.61 C 8.22 24.163 8.829 24.517 9.516 24.517 C 10.663 24.517 11.593 23.528 11.593 22.309 C 11.593 21.611 11.289 20.989 10.814 20.584 L 10.81 20.581 C 9.727 19.663 9.038 18.261 9.038 16.689 C 9.038 16.473 9.052 16.261 9.077 16.053 L 9.075 16.077 C 9.316 15.119 9.81 14.306 10.475 13.7 L 10.481 13.695 C 9.967 15.132 11.427 16.548 12.39 17.255 C 14.334 18.474 15.978 19.657 17.55 20.935 L 17.427 20.839 C 18.999 22.126 20.003 24.129 20.003 26.381 C 20.003 26.512 20 26.642 19.993 26.771 L 19.994 26.753 C 19.572 29.246 17.903 31.236 15.712 31.987 L 15.667 32 C 20.208 30.933 24.903 27.187 24.996 21.831 C 25.113 17.788 22.61 14.208 18.528 11.985 C 18.609 12.146 18.657 12.337 18.657 12.538 C 18.657 12.792 18.582 13.028 18.452 13.221 L 18.454 13.218 C 18.056 13.875 17.372 14.304 16.592 14.304 C 15.913 14.304 15.306 13.979 14.902 13.466 L 14.899 13.463 C 13.388 11.4 14.93 9.175 15.146 6.99 C 15.148 6.917 15.149 6.833 15.149 6.748 C 15.149 3.956 13.832 1.492 11.823 0.018 L 11.797 0 L 11.8 0.001 Z"/></svg>