<svg viewBox="0 0 50 50" xmlns="http://www.w3.org/2000/svg"><path fill="currentColor" d="M 44.048 0 L 5.952 0 C 2.667 0 0 2.667 0 5.952 L 0 44.048 C 0 47.333 2.667 50 5.952 50 L 44.048 50 C 47.333 50 50 47.333 50 44.048 L 50 5.952 C 50 2.667 47.333 0 44.048 0 Z M 15.476 19.048 L 15.476 41.667 L 8.333 41.667 L 8.333 19.048 L 15.476 19.048 Z M 8.333 12.464 C 8.333 10.798 9.762 9.524 11.905 9.524 C 14.048 9.524 15.393 10.798 15.476 12.464 C 15.476 14.131 14.143 15.476 11.905 15.476 C 9.762 15.476 8.333 14.131 8.333 12.464 Z M 41.667 41.667 L 34.524 41.667 C 34.524 41.667 34.524 30.643 34.524 29.762 C 34.524 27.381 33.333 25 30.357 24.952 L 30.262 24.952 C 27.381 24.952 26.19 27.405 26.19 29.762 C 26.19 30.845 26.19 41.667 26.19 41.667 L 19.048 41.667 L 19.048 19.048 L 26.19 19.048 L 26.19 22.095 C 26.19 22.095 28.488 19.048 33.107 19.048 C 37.833 19.048 41.667 22.298 41.667 28.881 L 41.667 41.667 Z"/></svg>